# xmcd
#
# Track frame offsets: 
#        150
#        17942
#        34460
#        48054
#        60437
#        74505
#        88013
#        102475
#        115641
#        139239
#        152872
#
# Disc length: 2184 seconds
#
# Revision: 0
# Processed by: cddbd v1.5.2PL0 Copyright (c) Steve Scherf et al.
# Submitted via: ExactAudioCopy v1.2
#
DISCID=9608860b
DTITLE=Omar and the Howlers - Zoltar's Walk
DYEAR=2017
DGENRE=Blues
TTITLE0=Under My Spell
TTITLE1=Keep Your Big Mouth Shut
TTITLE2=What Can I Do
TTITLE3=Zoltar's Walk
TTITLE4=Stay out of My Yard
TTITLE5=Soapbox Shouter
TTITLE6=Meaning of the Blues
TTITLE7=Big Chief Pontiac
TTITLE8=Always Been a Drifter
TTITLE9=Mr. Freeze
TTITLE10=Hoo Doo
EXTD=
EXTT0=
EXTT1=
EXTT2=
EXTT3=
EXTT4=
EXTT5=
EXTT6=
EXTT7=
EXTT8=
EXTT9=
EXTT10=
PLAYORDER=
